<svg xmlns="http://www.w3.org/2000/svg" xmlns:xlink="http://www.w3.org/1999/xlink" x="0" y="0" version="1.1" viewBox="0 0 474 298" style="enable-background:new 0 0 474 298" xml:space="preserve"><style type="text/css">.st97{fill:#918996}.st98{fill:#01b279}.st101{fill:#f9895d}</style><linearGradient id="SVGID_1_" x1="-2454.833" x2="-2454.126" y1="-3579.027" y2="-3579.734" gradientUnits="userSpaceOnUse"><stop offset="0" style="stop-color:#1eab4b"/><stop offset=".983" style="stop-color:#19361a"/></linearGradient><g id="Layer_2"><polygon points="119.701 41.185 48.187 112.701 145.873 138.871" class="st101"/><polygon points="227.42 70.054 155.911 141.561 253.597 167.731" class="st98"/><polygon points="148.563 148.909 77.046 220.426 174.732 246.597" class="st97"/><polygon points="252.044 173.526 154.357 147.355 180.527 245.043" class="st98"/><polygon points="223.185 65.802 125.496 39.631 151.668 137.317" class="st98"/><polygon points="144.319 144.666 46.633 118.496 72.803 216.183" class="st98"/><polygon points="187.699 197.61 247.318 197.615 217.512 249.247" class="st101"/><g><path d="M296.078125,223.4287415c0-7.8897095-2.6835938-14.3379059-7.9746094-19.1670074h-0.0009766 c-2.6123047-2.3896942-5.5586243-4.1044922-8.7588196-5.0986938c-3.0350952-1.0332031-7.2284851-1.5527039-12.4882812-1.5527039 H256.601532v51.6367035h10.1152954c5.3085022,0,9.4443054-0.4853058,12.2929077-1.4423981 c3.0409851-0.9541016,5.9815063-2.6737976,8.7597961-5.1171112 C293.2822266,237.8164368,296.078125,231.3359375,296.078125,223.4287415z M283.610321,238.3779297 c-2.0380859,1.8457031-4.3534851,3.2119141-6.8808899,4.0635071c-2.5155945,0.7967987-5.6689148,1.1981964-9.3876038,1.1981964 h-4.6464844v-40.4218903h4.6464844c7.1289062,0,12.6289062,1.7372894,16.3457031,5.1631012 c4.1336975,3.8427887,6.2284851,8.9042969,6.2284851,15.0478973c0,6.1015015-2.1200867,11.1307983-6.3027954,14.9462891 L283.610321,238.3779297z" class="st97"/><path d="M342.3984375,223.4287415c0-7.8897095-2.6835938-14.3379059-7.9746094-19.1670074 c-2.6133118-2.3896942-5.5596008-4.1044922-8.7597961-5.0986938c-3.0350952-1.0332031-7.2285156-1.5527039-12.4883118-1.5527039 h-10.2538757v51.6367035h10.1152954c5.3085938,0,9.4442749-0.4853058,12.2928772-1.4423981 c3.0411072-0.9541016,5.9815063-2.6737976,8.7598267-5.1171112 C339.6025391,237.8164368,342.3984375,231.3359375,342.3984375,223.4287415z M323.0498352,242.4414368 c-2.5157166,0.7967987-5.6690063,1.1981964-9.3876953,1.1981964h-4.6465149v-40.4218903h4.6465149 c7.1288757,0,12.6288757,1.7372894,16.3457031,5.1631012c4.1337891,3.8427887,6.2284851,8.9042969,6.2284851,15.0478973 c0,6.1015015-2.1200867,11.1307983-6.3027039,14.9462891 C327.8925171,240.2236328,325.5771179,241.5898438,323.0498352,242.4414368z" class="st97"/><path d="M346.5664368,223.6718445c0,7.9072876,2.9140015,14.4921875,8.6600952,19.573288 c5.2940063,4.6269073,11.4423828,6.9746094,18.2695923,6.9746094c5.2695007,0,10.1132202-1.3955078,14.3963928-4.1484985 l0.686615-0.4414062l4.4804077,4.5899048h7.3017883l-7.8085938-7.6240082l0.6786804-0.7148895 c4.9121094-5.1777039,7.4033203-11.1758118,7.4033203-17.8271027c0-8.5214996-3.1542969-15.5234985-9.3739929-20.8106079 c-5.1855164-4.406189-11.1270142-6.6405945-17.6592102-6.6405945c-7.2030945,0-13.5400085,2.5487976-18.8348999,7.5771027 C349.3252258,209.3544312,346.5664368,215.9130402,346.5664368,223.6718445z M358.6044312,208.347641 c3.8789978-4.0702972,8.890686-6.1367035,14.8916931-6.1367035c5.9257202,0,10.9580078,2.0625,14.9570007,6.1298981 c3.993103,4.0634003,6.0176086,9.1688995,6.0176086,15.1748047c0,5.4960938-1.8233032,10.1777039-5.4200134,13.9169922 l-0.7049866,0.7324066l-8.2099915-8.1660004h-7.5742188l11.797821,11.4297028l-1.1640015,0.6582031 c-2.9639282,1.6756897-6.3203125,2.5253906-9.9766235,2.5253906c-5.3808899,0-10.2294922-2.0079041-14.4100952-5.9658966 c-4.0341797-3.8623047-6.078186-8.8818054-6.078186-14.9228058 C352.7304382,217.5585327,354.7070312,212.3847351,358.6044312,208.347641z" class="st97"/></g></g></svg>